<?xml version="1.0" encoding="UTF-8" standalone="no"?>
<svg
   xmlns:dc="http://purl.org/dc/elements/1.1/"
   xmlns:cc="http://creativecommons.org/ns#"
   xmlns:rdf="http://www.w3.org/1999/02/22-rdf-syntax-ns#"
   xmlns:svg="http://www.w3.org/2000/svg"
   xmlns="http://www.w3.org/2000/svg"
   viewBox="0 0 533.33331 533.33331"
   height="533.33331"
   width="533.33331"
   xml:space="preserve"
   id="svg2"
   version="1.1"><metadata
     id="metadata8"><rdf:RDF><cc:Work
         rdf:about=""><dc:format>image/svg+xml</dc:format><dc:type
           rdf:resource="http://purl.org/dc/dcmitype/StillImage" /></cc:Work></rdf:RDF></metadata><defs
     id="defs6"><clipPath
       id="clipPath18"
       clipPathUnits="userSpaceOnUse"><path
         id="path16"
         d="M 0,400 H 400 V 0 H 0 Z" /></clipPath></defs><g
     transform="matrix(1.3333333,0,0,-1.3333333,0,533.33333)"
     id="g10"><g
       id="g12"><g
         clip-path="url(#clipPath18)"
         id="g14"><g
           transform="translate(211.3213,359.9956)"
           id="g20"><path
             id="path22"
             style="fill:#800000;fill-opacity:1;fill-rule:nonzero;stroke:none"
             d="M 0,0 C 51.829,-0.528 90.291,-49.171 76.226,-98.87 60.894,-153.044 32.6,-201.598 5.719,-250.613 c -4.558,-8.31 -10.165,-6.958 -14.202,0.421 -27.068,49.47 -55.647,98.479 -70.196,153.434 C -91.862,-46.963 -52.165,0.532 0,0" /></g><g
           transform="translate(323.0459,59)"
           id="g24"><path
             id="path26"
             style="fill:#a7ce44;fill-opacity:1;fill-rule:nonzero;stroke:none"
             d="m 0,0 h -223.362 c -0.179,0.634 -0.359,1.268 -0.538,1.901 30.643,10.968 61.293,21.919 91.923,32.925 4.314,1.551 7.389,-0.467 10.754,-2.767 4.286,-2.929 9.937,-4.245 13.911,-1.209 9.147,6.983 17.343,2.951 26.101,-0.171 C -54.095,21.014 -26.896,11.584 0.271,2.063 0.181,1.375 0.09,0.687 0,0" /></g><g
           transform="translate(118.3911,143.6582)"
           id="g28"><path
             id="path30"
             style="fill:#0298d9;fill-opacity:1;fill-rule:nonzero;stroke:none"
             d="m 0,0 c 11.729,-15.669 22.153,-29.779 32.805,-43.716 3.208,-4.196 3.118,-6.597 -2.271,-8.442 C 9.817,-59.25 -10.832,-66.541 -35.272,-75.071 -22.802,-48.53 -11.825,-25.168 0,0" /></g><g
           transform="translate(332.8203,70.8232)"
           id="g32"><path
             id="path34"
             style="fill:#cbcbcb;fill-opacity:1;fill-rule:nonzero;stroke:none"
             d="m 0,0 c -19.21,6.834 -38.369,13.814 -57.655,20.424 -6.955,2.384 -8.549,5.247 -3.632,11.461 8.452,10.681 16.352,21.798 24.538,32.691 3.484,4.637 6.828,7.374 10.363,-0.222 C -16.776,43.706 -6.95,23.159 2.789,2.573 1.859,1.715 0.93,0.857 0,0" /></g><g
           transform="translate(128.6909,150.4619)"
           id="g36"><path
             id="path38"
             style="fill:#fecb2a;fill-opacity:1;fill-rule:nonzero;stroke:none"
             d="m 0,0 c 12.586,0 22.223,-0.215 31.843,0.084 5.434,0.169 7.809,-3.005 9.903,-7.12 4.438,-8.727 9.266,-17.271 13.316,-26.171 1.847,-4.06 9.026,-9.684 0.077,-12.917 -6.686,-2.416 -14.125,-10.51 -21.607,0.623 C 23.721,-30.903 12.707,-17.113 0,0" /></g><g
           transform="translate(291.4639,149.2148)"
           id="g40"><path
             id="path42"
             style="fill:#fecb29;fill-opacity:1;fill-rule:nonzero;stroke:none"
             d="m 0,0 c -12.003,-15.954 -22.8,-30.364 -33.663,-44.725 -7.626,-10.079 -15.463,-1.842 -22.014,0.99 -7.803,3.373 0.464,7.726 1.57,11.593 0.789,2.763 2.55,5.25 3.894,7.852 C -35.684,3.832 -35.683,3.832 0,0" /></g><g
           transform="translate(163.8003,280.4219)"
           id="g44"><path
             id="path46"
             style="fill:#800000;fill-opacity:1;fill-rule:nonzero;stroke:none"
             d="M 0,0 C -0.178,25.901 20.695,46.652 46.799,46.527 72.726,46.402 93.168,25.581 93.125,-0.658 93.083,-25.698 72.425,-46.188 46.9,-46.505 20.828,-46.83 0.181,-26.356 0,0" /></g><g
           transform="translate(252.748,297.7383)"
           id="g48"><path
             id="path50"
             style="fill:#ffffff;fill-opacity:1;fill-rule:nonzero;stroke:none"
             d="M 0,0 C -17.549,0.032 -35.097,0.021 -52.646,0.018 -63.352,0.017 -74.058,0.01 -84.764,0.01 c -1.611,0 -3.111,-0.08 -2.161,-2.387 0.429,-1.676 1.808,-2.77 2.626,-4.226 1.358,-2.416 2.572,-4.941 4.309,-7.135 0.398,-0.502 0.824,-1.101 1.569,-0.776 0.728,0.319 0.645,1.023 0.523,1.668 -0.059,0.314 -0.233,0.598 -0.305,0.908 -0.239,1.028 0.095,1.695 1.214,1.303 2.323,-0.813 4.818,-1.23 6.841,-2.782 2.177,-0.893 4.3,-1.928 6.584,-2.544 1.113,-0.052 2.15,-0.419 3.211,-0.723 1.166,-0.333 2.267,-0.279 2.323,1.383 -0.062,0.377 -0.227,0.705 -0.464,1.002 -1.065,1.328 -2.633,2.244 -3.571,4.197 1.994,-0.702 3.38,-1.543 4.402,-2.93 1.226,-1.025 2.752,-1.538 4.09,-2.386 1.954,-1.239 2.647,-0.755 2.834,1.742 -0.303,1.75 -1.707,3.178 -1.636,5.176 1.971,-1.264 2.615,-1.939 3.629,-3.729 0.095,-0.204 0.201,-0.402 0.329,-0.588 0.323,-0.466 0.722,-0.865 1.133,-1.248 1.958,-1.827 2.83,-1.636 3.897,0.763 0.579,1.3 0.66,2.774 1.377,4.182 0.674,-0.991 0.752,-1.954 0.876,-2.895 0.177,-1.329 0.534,-2.654 1.896,-3.12 1.507,-0.515 2.278,0.84 3.183,1.703 0.467,0.444 0.765,1.039 1.202,1.504 0.772,0.82 1.371,1.859 2.538,2.452 0.215,-1.224 -0.456,-1.928 -0.7,-2.758 -0.366,-1.251 -0.814,-2.666 0.263,-3.632 1.173,-1.053 2.213,0.23 3.243,0.718 2.184,1.035 3.753,3.031 6.043,3.949 -1.133,-1.297 -2.096,-2.677 -3.033,-4.078 -0.397,-0.593 -1.026,-1.185 -0.548,-1.938 0.476,-0.746 6.615,1.239 7.299,1.477 0.12,0.041 0.236,0.078 0.349,0.11 -0.111,0.294 -1.757,-0.11 -1.349,-0.11 0.33,0 -3,-1 2.274,0.288 0.083,0.007 0.162,0.012 0.232,0.012 0.312,0.074 0.448,0.042 0.445,-0.058 0.059,-0.032 0.05,-0.074 -0.044,-0.114 -0.19,-0.294 -0.955,-0.817 -1.907,-1.128 -1.469,-0.436 -7.375,-2.757 -8.824,-3.258 -0.722,-0.25 -10.176,-4.742 -1.266,-1.718 0.822,-0.671 1.651,-0.213 2.478,-0.009 3.852,1.677 7.717,3.321 11.446,5.266 0.055,0.036 0.11,0.066 0.176,0.089 10e-4,10e-4 0.002,10e-4 0.003,10e-4 2.631,1.532 5.237,3.108 8.015,4.364 0.536,0.242 1.149,0.857 1.732,0.241 0.537,-0.567 0.083,-1.221 -0.188,-1.782 -0.456,-0.947 -0.616,-1.988 -0.992,-2.958 -0.577,-1.555 -0.926,-3.191 -1.654,-4.714 0.111,1.517 0.426,2.998 0.297,4.508 -0.185,2.153 -1.07,2.64 -3.032,1.642 -0.997,-0.508 -1.848,-1.268 -2.885,-1.71 -0.037,-0.017 -0.069,-0.04 -0.101,-0.061 0.093,-0.201 0.119,-0.424 0.083,-0.644 -0.002,-0.043 0.009,-0.086 0.002,-0.129 10e-4,-0.041 0.016,-0.079 0.012,-0.12 -0.003,-0.08 -0.018,-0.156 -0.038,-0.233 -0.005,-0.016 -0.006,-0.032 -0.012,-0.048 -0.008,-0.027 -0.01,-0.057 -0.021,-0.084 0.085,-0.098 -0.054,-0.24 -0.341,-0.415 -0.054,-0.036 -0.106,-0.073 -0.17,-0.097 -1.51,-0.826 -5.76,-2.265 -6.749,-3.443 -0.064,-0.23 -0.018,-0.438 0.125,-0.627 0.854,-0.005 1.469,0.475 2.164,0.912 3.136,1.975 7.566,4.109 10.74,6.027 -1.315,-5.027 -2.084,-10.302 -3.181,-15.279 -0.683,-3.107 -2.104,-5.938 -1.46,-5.429 -0.107,-0.721 0.901,-0.383 2.408,2.604 0.151,0.175 0.214,0.268 0.096,0.193 0.665,1.351 1.422,3.205 2.221,5.709 1.547,5.543 2.355,8.558 2.728,10.058 2.131,4.952 5.568,9.185 8.149,13.894 L 3.29,-0.794 C 2.58,0.583 1.127,-0.002 0,0" /></g><g
           transform="translate(164.3896,308.6709)"
           id="g52"><path
             id="path54"
             style="fill:#ffffff;fill-opacity:1;fill-rule:nonzero;stroke:none"
             d="m 0,0 c -0.03,5.229 -0.029,5.221 5.265,6.255 9.317,1.82 18.7,2.948 28.928,2.677 C 41.313,9.47 49.07,8.341 56.765,7.327 62.581,6.56 68.427,5.55 74.159,3.958 77.997,2.894 81.863,1.822 85.758,0.943 87.505,0.549 88.697,-1.801 90.61,-1.671" /></g><g
           transform="translate(167.8237,305.4189)"
           id="g56"><path
             id="path58"
             style="fill:#ffffff;fill-opacity:1;fill-rule:nonzero;stroke:none"
             d="m 0,0 c 0.76,0.243 1.55,0.465 2.34,0.527 4.313,0.34 8.578,1.147 12.829,1.807 L -3.43,2.528 C -3.38,-0.506 -2.826,-0.902 0,0" /></g><g
           transform="translate(237.3418,308.6304)"
           id="g60"><path
             id="path62"
             style="fill:#ffffff;fill-opacity:1;fill-rule:nonzero;stroke:none"
             d="m 0,0 c -9.688,0.637 -19.411,1.77 -29.132,1.061 -8.395,-0.612 -16.826,-0.637 -25.197,-1.936 -0.006,0 -0.013,-0.001 -0.02,-0.002 L 13.01,-1.582 C 8.506,-1.356 4.5,-0.296 0,0" /></g><g
           transform="translate(218.4766,268.8584)"
           id="g64"><path
             id="path66"
             style="fill:#800000;fill-opacity:1;fill-rule:nonzero;stroke:none"
             d="m 0,0 c -2.482,-0.961 -2.442,-2.992 -2.416,-5.201 0.087,-7.308 0.129,-14.619 -0.013,-21.925 -0.062,-3.176 -0.142,-6.335 -0.004,-9.517 0.159,-3.671 -1.223,-4.838 -4.836,-4.448 -1.104,0.12 -2.408,-0.912 -3.318,0.498 1.492,0.889 1.755,2.251 1.748,3.887 -0.048,10.411 -0.034,20.821 -0.015,31.231 0.003,1.183 -0.222,2.417 0.492,3.509 2.352,0.649 2.893,0.229 2.883,-2.427 -0.029,-7.646 -0.002,-15.291 -0.013,-22.936 -0.005,-2.817 -0.011,-5.633 0.005,-8.45 0.005,-0.844 -0.084,-1.716 0.418,-2.646 0.676,1.148 0.465,2.217 0.466,3.237 0.02,9.818 0.01,19.636 0.013,29.455 0,0.965 -0.045,1.936 0.103,2.892 C -4.113,-0.411 -2.566,0.558 0,0" /></g><g
           transform="translate(218.4766,268.8584)"
           id="g68"><path
             id="path70"
             style="fill:#fcfcfc;fill-opacity:1;fill-rule:nonzero;stroke:none"
             d="m 0,0 c -2.477,-0.858 -3.834,-0.827 -3.829,-4.699 0.013,-10.86 0.015,-21.72 0.016,-32.581 0,-0.562 0.012,-1.132 -0.074,-1.684 -0.11,-0.705 -0.513,-1.201 -1.302,-1.115 -0.664,0.073 -0.947,0.562 -0.987,1.179 -0.036,0.56 -0.021,1.125 -0.02,1.688 0.021,11.261 0.008,22.523 0.104,33.784 0.016,1.823 -0.99,1.457 -2.025,1.381 -0.224,-0.132 -0.431,-0.109 -0.62,0.067 0.148,1.174 1.133,1.102 1.825,0.97 1.447,-0.276 2.454,0.334 3.401,1.252 1.504,0.896 3.106,1.563 4.792,2.024 2.516,1.158 5.223,1.908 7.508,3.552 0.188,0.13 0.389,0.232 0.601,0.316 1.093,0.018 6.133,3.008 3.18,0.6 0.017,-0.177 13.937,6.584 13.953,6.408 C 23.169,10.951 5.556,2.536 1.913,0.932 1.26,0.645 4.523,2.142 0,0" /></g><g
           transform="translate(165.8232,295.3613)"
           id="g72"><path
             id="path74"
             style="fill:#ffffff;fill-opacity:1;fill-rule:nonzero;stroke:none"
             d="m 0,0 c 2.519,-2.094 3.569,-5.188 5.236,-7.849 0.888,-1.417 1.806,-2.754 2.919,-4.108 0.905,0.888 0.237,1.401 -0.125,2.087 -0.735,1.39 0.082,3.003 1.209,2.525 2.561,-1.089 5.61,-1.076 7.689,-3.274 -0.332,-0.718 0.739,-1.673 -0.383,-2.261 -1.568,-0.037 -2.904,0.713 -4.296,1.25 -1.188,-0.999 -0.944,-2.355 -0.631,-3.515 2.206,-8.155 2.858,-16.574 4.35,-24.852 -0.037,-0.402 -0.17,-0.758 -0.48,-1.032 -1.93,2.517 -1.904,5.591 -2.42,8.508 -0.855,4.833 -1.181,9.792 -2.667,14.47 -0.962,3.031 -3.567,5.246 -5.106,8.07 C 3.743,-7.135 2.327,-4.174 0.232,-1.633 -0.066,-1.271 0.067,-0.553 0,0" /></g><g
           transform="translate(181.3115,254.3325)"
           id="g76"><path
             id="path78"
             style="fill:#ffffff;fill-opacity:1;fill-rule:nonzero;stroke:none"
             d="m 0,0 c 0,0.321 0,0.642 0,0.962 1.125,0.17 1.504,-0.751 2.024,-1.419 6.343,-8.157 13.426,-15.564 21.86,-21.606 0.327,-0.235 0.632,-0.502 0.974,-0.71 0.731,-0.445 1.434,-1.429 2.297,-0.98 0.797,0.414 0.224,1.459 0.221,2.218 -0.042,10.604 -0.027,21.208 0.017,31.813 0.003,0.857 -0.265,2.006 1.109,2.262 0.182,-0.02 0.363,-0.04 0.545,-0.061 -0.017,-11.942 -0.058,-23.884 -0.026,-35.826 0.004,-1.789 -0.206,-3.084 -2.443,-2.72 -3.641,3.109 -7.745,5.594 -11.303,8.859 C 9.576,-11.979 4.274,-6.462 0,0" /></g><g
           transform="translate(173.0957,253.3682)"
           id="g80"><path
             id="path82"
             style="fill:#ffffff;fill-opacity:1;fill-rule:nonzero;stroke:none"
             d="m 0,0 c 3.042,-4.783 5.896,-9.691 9.429,-14.146 7.395,-9.324 16.144,-17.082 26.534,-22.954 1.698,-0.96 3.217,-0.558 4.766,0.295 3.783,2.085 7.385,4.457 10.95,6.888 0.223,0.157 0.422,0.124 0.601,-0.076 0.111,-0.526 -0.141,-0.93 -0.439,-1.32 -3.76,-3.355 -8.343,-5.424 -12.594,-8.012 -0.907,-0.553 -1.846,-0.199 -2.751,0.266 -5.33,2.736 -10.162,6.219 -14.758,10.014 -8.721,7.2 -15.652,15.918 -21.317,25.668 -0.587,1.011 -1.499,1.956 -1.047,3.313 C -0.434,0.114 -0.225,0.136 0,0" /></g><g
           transform="translate(203.4873,208.4087)"
           id="g84"><path
             id="path86"
             style="fill:#f9f4f5;fill-opacity:1;fill-rule:nonzero;stroke:none"
             d="m 0,0 c -2.539,1.27 -4.571,3.243 -6.624,5.105 -8.965,8.133 -16.571,17.352 -22.127,28.19 -2.732,5.329 -5.1,10.793 -6.975,16.476 -0.264,0.316 -0.233,0.656 -0.082,1.006 0.224,0.107 0.452,0.121 0.684,0.028 0.983,-0.943 1.249,-2.247 1.735,-3.442 C -28.711,35.079 -22.37,23.83 -13.492,14.004 -9.582,9.676 -5.233,5.92 -0.788,2.216 -0.041,1.594 1.132,1.243 1.016,-0.081 0.663,-0.233 0.322,-0.234 0,0" /></g><g
           transform="translate(203.4873,208.4087)"
           id="g88"><path
             id="path90"
             style="fill:#f9f4f5;fill-opacity:1;fill-rule:nonzero;stroke:none"
             d="m 0,0 c 0.342,0.01 0.685,0.021 1.027,0.031 1.933,0.033 3.121,-1.476 4.611,-2.317 1.372,-0.775 2.467,-0.821 3.773,0.04 4.231,2.791 8.179,5.903 11.565,9.695 0.856,0.958 1.738,1.891 2.8,2.631 1.496,1.135 2.907,2.352 3.84,4.023 0.16,0.295 0.367,0.551 0.617,0.773 0.716,0.419 1.17,1.373 2.228,1.102 C 30.575,15.33 30.139,14.947 29.775,14.519 23.888,7.579 17.403,1.284 9.872,-3.876 8.592,-4.752 7.149,-5.063 5.808,-4.187 3.812,-2.882 1.93,-1.404 0,0" /></g><g
           transform="translate(225.2822,223.3525)"
           id="g92"><path
             id="path94"
             style="fill:#fcfafb;fill-opacity:1;fill-rule:nonzero;stroke:none"
             d="m 0,0 c -0.169,0.033 -0.339,0.065 -0.508,0.098 3.43,3.584 7.662,6.226 11.252,9.648 2.55,2.431 4.707,5.213 7.318,7.566 0.412,0.372 0.805,0.78 1.272,1.067 0.313,0.193 0.853,0.393 1.091,0.252 0.505,-0.298 0.291,-0.852 0.055,-1.278 -1.865,-3.387 -3.467,-6.954 -6.492,-9.555 -0.687,0.999 0.297,1.591 0.57,2.36 0.106,0.196 0.23,0.381 0.359,0.563 0.744,1.03 1.435,2.096 2.064,3.232 C 12.613,9.402 7.846,5.308 2.881,1.44 2.027,0.774 1.293,-0.189 0,0" /></g><g
           transform="translate(167.8257,259.1953)"
           id="g96"><path
             id="path98"
             style="fill:#fcfafb;fill-opacity:1;fill-rule:nonzero;stroke:none"
             d="m 0,0 c -0.021,-0.338 -0.042,-0.677 -0.064,-1.016 -1.548,3.005 -1.728,6.354 -2.39,9.58 -0.09,0.438 -0.17,1.024 0.377,1.263 C -1.523,10.069 -1.23,9.543 -0.888,9.24 0.212,8.266 1.08,7.246 0.959,5.57 0.839,3.892 8.713,-9.328 8.174,-11.195 7.942,-11.244 1.893,0.878 1.704,1.024 0.858,2.18 0.134,3.401 -0.213,5.012 -0.828,3.172 1.203,1.662 0,0" /></g><g
           transform="translate(240.2744,233.5205)"
           id="g100"><path
             id="path102"
             style="fill:#fcfafb;fill-opacity:1;fill-rule:nonzero;stroke:none"
             d="m 0,0 c -0.335,-0.79 -0.669,-1.58 -1.004,-2.37 -1.774,-2.255 -3.548,-4.509 -5.322,-6.764 -0.652,-0.465 -1.304,-0.93 -1.955,-1.396 -0.51,0.816 0.065,1.363 0.51,1.905 1.926,2.352 3.705,4.815 5.513,7.256 C -1.72,-0.642 -1.232,0.342 0,0" /></g><g
           transform="translate(169.7988,260.186)"
           id="g104"><path
             id="path106"
             style="fill:#ffffff;fill-opacity:1;fill-rule:nonzero;stroke:none"
             d="M 0,0 C 0.114,-0.06 0.235,-0.096 0.363,-0.107 1.341,-2.344 2.319,-4.581 3.297,-6.818 3.092,-6.84 2.887,-6.862 2.682,-6.885 0.924,-6.531 0.854,-4.959 0.364,-3.689 0.388,-2.558 -0.608,-1.672 -0.417,-0.499 -0.342,-0.279 -0.2,-0.115 0,0" /></g><g
           transform="translate(237.2588,281.9121)"
           id="g108"><path
             id="path110"
             style="fill:#800000;fill-opacity:1;fill-rule:nonzero;stroke:none"
             d="M 0,0 C 0.322,0.18 0.676,0.263 1.036,0.326 3.074,-0.251 1.753,-0.89 1.069,-1.517" /></g><g
           transform="translate(236.9922,279.3755)"
           id="g112"><path
             id="path114"
             style="fill:#800000;fill-opacity:1;fill-rule:nonzero;stroke:none"
             d="M 0,0 C -2.444,-1.03 -4.555,-2.669 -6.951,-3.808 -7.714,-4.171 -8.58,-4.333 -9.274,-4.844 l 4.282,2.469 c 12.259,5.454 4,1 -12.022,-6.323 -1.626,-0.646 -3.251,-1.292 -4.877,-1.938 -2.103,-1.904 -4.842,-1.675 -7.017,-1.033 -8.276,2.442 -16.211,5.77 -23.279,10.876 -0.85,1.198 -1.281,2.234 0.888,2.234 6.034,-2.325 11.953,-4.955 18.036,-7.151 4.332,-1.565 8.777,-2.268 13.214,-0.214" /></g><g
           transform="translate(225.2803,276.0459)"
           id="g116"><path
             id="path118"
             style="fill:#ffffff;fill-opacity:1;fill-rule:nonzero;stroke:none"
             d="m 0,0 c -4.243,-1.648 -8.462,-3.363 -12.875,-4.541 -0.965,-0.257 -1.883,-0.347 -2.844,-0.117 -7.878,1.888 -15.131,5.505 -22.714,8.207 -0.435,0.155 -0.787,0.545 -1.177,0.826 -6.67,2.579 -3.233,1.625 -5.098,0.737 -1.171,0.285 -2.29,0.681 -2.952,1.777 -0.421,0.697 -0.229,1.003 0.726,1.337 1.463,-0.491 2.926,-0.982 4.389,-1.472 1.606,0.445 2.738,-0.67 3.963,-1.303 7.441,-3.849 15.173,-6.929 23.383,-8.646 1.994,-0.417 4.111,0.118 6.006,0.999 0.879,0.408 1.755,0.756 2.695,0.955 1.42,0.175 2.66,0.944 4.048,1.227 l 0.053,0.027 C -1.519,-0.25 -0.864,0.562 -0.028,0.506 0.146,0.404 0.207,0.294 0.158,0.179 0.107,0.06 0.056,0 0,0" /></g><g
           transform="translate(219.0488,274.5615)"
           id="g120"><path
             id="path122"
             style="fill:#ffffff;fill-opacity:1;fill-rule:nonzero;stroke:none"
             d="m 0,0 c -5.985,-3.273 -11.875,-2.096 -17.813,0.245 -6.256,2.465 -12.493,4.959 -18.5,7.993 0.136,0.647 -2.006,1.312 0.016,1.943 2.096,-0.798 4.193,-1.596 6.29,-2.393 0.254,-0.658 4.127,-0.08 3.958,-1.35 -0.669,-0.124 -7.144,1.729 -8,1 4.071,-1.623 11.144,-4.474 15.146,-5.795 2.968,-0.98 5.833,-2.315 9.028,-2.688 2.686,-0.314 5.184,-0.189 7.555,1.154 0.737,0.418 9.271,3.329 2.328,0.352 C 0.132,0.356 0.172,0.253 0.128,0.151 0.085,0.05 0.042,0 0,0" /></g><g
           transform="translate(238.3281,280.3955)"
           id="g124"><path
             id="path126"
             style="fill:#ffffff;fill-opacity:1;fill-rule:nonzero;stroke:none"
             d="M 0,0 C -0.222,0.49 0.337,1.152 -1.328,1.604 0.618,3.941 4.826,4.551 7.369,5.876 8.352,6.388 8.627,5.389 8.444,4.659 8.136,3.428 8.056,2.163 7.74,0.939 7.194,-1.279 6.708,-3.52 5.37,-5.964 4.377,-3.741 5.38,-2.063 5.269,-0.392 5.208,0.521 1.746,-0.972 0.672,-0.396 -0.271,0.11 3.253,1.652 2.482,1.313 1.62,0.934 1.122,-0.126 0,0" /></g><g
           transform="translate(246.0684,281.335)"
           id="g128"><path
             id="path130"
             style="fill:#ffffff;fill-opacity:1;fill-rule:nonzero;stroke:none"
             d="M 0,0 C -0.107,1.506 -0.034,3.004 0.328,4.74 -2.696,3.637 -5.33,2.278 -7.779,0.547 -8.093,0.513 -8.406,0.479 -8.72,0.444 -8.917,0.293 -9.086,0.312 -9.222,0.528 -6.47,2.412 -3.464,3.84 -0.516,5.37 0.028,5.652 0.689,6.122 1.221,5.501 1.62,5.035 1.769,4.375 1.491,3.71 0.98,2.479 0.496,1.237 0,0" /></g><g
           transform="translate(236.8467,281.8628)"
           id="g132"><path
             id="path134"
             style="fill:#fffdfd;fill-opacity:1;fill-rule:nonzero;stroke:none"
             d="m 0,0 c 0.167,-0.028 3.985,2.166 4.153,2.137 -1.48,-1.831 -7.478,-4.258 -9.402,-5.252 -2.033,-1.051 -9.333,-4.221 -11.598,-4.748 -0.009,0.169 5.262,2.384 5.252,2.552 C -7.73,-3.54 -3.865,-1.77 0,0" /></g><g
           transform="translate(226.3027,314.293)"
           id="g136"><path
             id="path138"
             style="fill:#ffffff;fill-opacity:1;fill-rule:nonzero;stroke:none"
             d="m 0,0 c 8.231,-1.24 16.327,-3.038 24.883,-5.867 -1.675,-0.708 -2.763,-0.586 -3.784,-0.379 -7.268,1.468 -14.668,1.84 -22.022,2.183 -13.252,0.617 -26.509,0.165 -39.712,-1.303 -1.913,-0.212 -3.827,-0.411 -5.741,-0.616 -0.046,0.133 -0.092,0.266 -0.139,0.399 0.614,1.038 1.676,1.23 2.713,1.286 8.259,0.444 16.447,1.863 24.764,1.578 7.069,-0.243 14.147,0.18 21.221,-0.039 4.467,-0.139 8.844,-1.079 13.31,-1.338 -3.616,0.2 -7.013,1.511 -10.609,1.906 -1.776,0.195 -3.772,0.006 -5.017,1.788 C -0.089,-0.268 -0.045,-0.134 0,0" /></g><g
           transform="translate(165.7095,312.8716)"
           id="g140"><path
             id="path142"
             style="fill:#ffffff;fill-opacity:1;fill-rule:nonzero;stroke:none"
             d="M 0,0 C 4.865,2.091 10.126,2.431 15.252,3.104 23.311,4.164 31.464,3.968 39.583,3.749 46.644,3.558 53.654,2.775 60.593,1.421 60.544,1.353 60.496,1.285 60.448,1.216 58.549,0.139 56.532,0.55 54.583,0.883 44.01,2.688 33.396,2.637 22.711,2.252 17.307,2.058 12.091,0.844 6.748,0.511 4.683,0.382 2.877,-1.201 0.676,-0.566 0.389,-0.451 0.165,-0.261 0,0" /></g><g
           transform="translate(179.9268,308.311)"
           id="g144"><path
             id="path146"
             style="fill:#fcfcfc;fill-opacity:1;fill-rule:nonzero;stroke:none"
             d="m 0,0 c -4.323,-0.773 -8.646,-1.551 -12.97,-2.315 -0.797,-0.141 -1.6,0.033 -1.591,0.968 0.021,1.97 -0.537,3.986 0.344,5.907 0.062,-0.054 0.123,-0.11 0.183,-0.166 0.76,-0.878 0.689,-1.963 0.618,-2.983 -0.133,-1.921 0.754,-2.369 2.484,-2.079 1.432,0.24 2.797,0.718 4.209,1.002 C -4.53,0.775 -2.321,1.267 -0.15,0.209 -0.101,0.139 -0.051,0.07 0,0" /></g><g
           transform="translate(178.3467,284.2715)"
           id="g148"><path
             id="path150"
             style="fill:#fcfcfc;fill-opacity:1;fill-rule:nonzero;stroke:none"
             d="m 0,0 c -1.418,-0.941 -0.082,-1.383 0.415,-1.8 0.584,-0.488 1.349,-0.76 2.035,-1.126 2.049,0.232 2.924,-1.597 4.342,-2.472 6.238,-4 12.909,-7.105 19.87,-9.616 3.318,-1.196 6.629,-2.284 10.093,-0.518 -0.776,-1.225 -1.54,-1.117 -3.308,-1.426 -1.794,-0.313 -1.446,0.263 -1.98,-0.441 -0.701,-0.651 -0.434,-1.504 -0.435,-2.277 -0.013,-10.366 -0.011,-20.731 -0.002,-31.096 0,-0.72 0.048,-1.443 0.143,-2.156 0.091,-0.686 0.604,-1.486 -0.193,-1.964 -0.736,-0.442 -1.382,0.243 -1.954,0.608 -3.648,2.332 -7.105,4.951 -10.263,7.892 -5.521,5.14 -10.799,10.529 -15.066,16.808 -0.172,0.252 -0.485,0.407 -0.732,0.607 -1.121,6.678 -2.307,13.346 -3.333,20.038 -0.435,2.837 -1.861,5.513 -1.375,8.512 0.07,0.432 -0.273,0.997 0.301,1.231 C -0.707,1.104 -0.223,0.732 0,0" /></g><g
           transform="translate(170.6313,256.6997)"
           id="g152"><path
             id="path154"
             style="fill:#ffffff;fill-opacity:1;fill-rule:nonzero;stroke:none"
             d="m 0,0 c 0.361,-1.272 0.835,-2.482 1.85,-3.398 5.103,-10.041 11.896,-18.763 20.274,-26.299 5.149,-4.633 10.668,-8.69 16.761,-11.996 1.199,-0.651 2.058,-0.82 3.285,-0.083 4.046,2.429 8.221,4.646 11.982,7.529 4.704,3.579 9.33,7.251 13.588,11.365 1.397,1.349 1.555,1.297 1.909,-0.287 l -0.006,-0.01 c -1.97,-0.989 -2.595,-3.127 -3.928,-4.662 -1.591,-1.834 -2.914,-3.902 -4.353,-5.868 -0.166,-0.175 -0.332,-0.35 -0.497,-0.525 -1.006,-1.685 -2.697,-2.757 -3.859,-4.301 -4.403,-4.57 -8.954,-8.954 -14.312,-12.452 -1.586,-1.035 -2.774,-1.263 -4.326,-0.077 -1.396,1.065 -2.983,1.879 -4.485,2.804 -12.765,9.516 -22.806,21.343 -29.959,35.564 -1.898,3.774 -3.642,7.643 -4.897,11.7 -0.218,0.509 -0.387,1.079 0.12,1.449 C -0.465,0.736 -0.18,0.358 0,0" /></g><g
           transform="translate(240.2803,233.5308)"
           id="g156"><path
             id="path158"
             style="fill:#ffffff;fill-opacity:1;fill-rule:nonzero;stroke:none"
             d="m 0,0 c -0.896,1.859 -1.521,0.127 -1.954,-0.273 -3.915,-3.626 -7.986,-7.06 -12.266,-10.25 -0.392,-0.292 -0.758,-0.584 -1.277,-0.555 0.166,0.3 0.333,0.6 0.499,0.9 6.427,4.597 12.204,9.959 17.946,15.419 C 2.608,3.062 1.442,1.45 0,0" /></g><g
           transform="translate(167.8257,259.1953)"
           id="g160"><path
             id="path162"
             style="fill:#fcfafb;fill-opacity:1;fill-rule:nonzero;stroke:none"
             d="M 0,0 C 0.03,1.926 -1.536,3.543 -1.073,5.554 -0.989,5.92 -1.085,6.404 -0.577,6.52 -0.08,6.633 0.249,6.242 0.241,5.877 0.199,4.015 1.747,2.739 1.973,0.99 1.973,0.991 1.789,0.851 1.789,0.851 0.735,1.422 0.908,0.147 0.386,-0.082 0.255,-0.062 0.127,-0.035 0,0" /></g><g
           transform="translate(168.2114,259.1138)"
           id="g164"><path
             id="path166"
             style="fill:#fcfafb;fill-opacity:1;fill-rule:nonzero;stroke:none"
             d="M 0,0 V 2.016 C 1.039,2.181 0.958,1.259 1.404,0.933 1.3,-0.317 2.729,-1.102 2.42,-2.414 1.121,-1.793 1.721,-3.028 1.447,-3.409 0.965,-2.273 0.482,-1.137 0,0" /></g><g
           transform="translate(227.6377,218.1646)"
           id="g168"><path
             id="path170"
             style="fill:#fcfafb;fill-opacity:1;fill-rule:nonzero;stroke:none"
             d="M 0,0 C 0.784,1.884 2.419,3.004 3.858,4.301 3.169,2.333 1.637,1.12 0,0" /></g><g
           transform="translate(219.0488,274.5615)"
           id="g172"><path
             id="path174"
             style="fill:#ffffff;fill-opacity:1;fill-rule:nonzero;stroke:none"
             d="M 0,0 C -0.031,0.154 -0.028,0.308 0.007,0.461 1.185,1.101 5.949,3.165 7.351,2.965 6.161,2.292 1.436,0.039 0,0" /></g><g
           transform="translate(185.1387,278.873)"
           id="g176"><path
             id="path178"
             style="fill:#800000;fill-opacity:1;fill-rule:nonzero;stroke:none"
             d="M 0,0 C -1.708,0.366 -2.816,1.787 -4.342,2.473 -3.901,3.31 -3.297,3.658 -2.384,3.147 -1.417,2.606 -0.441,2.08 0.532,1.548 9.861,-2.873 -0.108,0.614 0,0" /></g><g
           transform="translate(179.7764,308.5205)"
           id="g180"><path
             id="path182"
             style="fill:#ffffff;fill-opacity:1;fill-rule:nonzero;stroke:none"
             d="m 0,0 c -4.224,0.379 -8.176,-1.183 -12.263,-1.775 -1.423,-0.206 -1.719,0.183 -1.684,1.402 0.043,1.519 0.044,3.039 0.063,4.558 3.994,0.683 8.031,1.183 11.963,2.124 C 0.216,6.821 2.312,7.01 4.472,7.154 11.119,7.596 17.78,7.853 24.421,7.505 29.913,7.218 35.457,7.289 40.874,5.919 42.628,5.476 44.541,5.667 46.381,5.568 47.104,5.013 47.924,4.782 48.833,4.677 53.688,4.116 58.429,2.97 63.152,1.756 63.604,1.64 64.117,1.609 64.464,0.794 60.529,1.169 56.713,1.312 52.981,1.953 49.298,2.586 45.571,2.541 41.936,2.476 34.615,2.345 27.288,2.67 19.98,2.276 14.062,1.957 8.159,1.331 2.255,0.779 1.486,0.708 0.751,0.269 0,0" /></g><path
           id="path184"
           style="fill:#ffffff;fill-opacity:1;fill-rule:nonzero;stroke:none"
           d="m 176.198,307.057 h -11.812 v 2.953 h 11.812 z" /><path
           id="path186"
           style="fill:#ffffff;fill-opacity:1;fill-rule:nonzero;stroke:none"
           d="m 241.165,307.057 h -64.967 v 2.953 h 64.967 z" /><g
           transform="translate(247.0088,307.562)"
           id="g188"><path
             id="path190"
             style="fill:#f9f9f9;fill-opacity:1;fill-rule:nonzero;stroke:none"
             d="M 0,0 C 0.482,0 0.483,0.75 0,0.75 -0.483,0.75 -0.483,0 0,0" /></g><g
           transform="translate(183.5947,276.8491)"
           id="g192"><path
             id="path194"
             style="fill:#fcfcfc;fill-opacity:1;fill-rule:nonzero;stroke:none"
             d="m 0,0 -3.83,2.523 -4.765,5.628 18,-11 z" /></g></g></g></g></svg>