<svg width="1024" height="1024" xmlns="http://www.w3.org/2000/svg">

 <metadata id="metadata7">image/svg+xml</metadata>
 <g>
  <title>background</title>
  <rect fill="none" id="canvas_background" height="402" width="582" y="-1" x="-1"/>
 </g>
 <g>
  <title>Layer 1</title>
  <g display="inline" id="layer4">
   <g transform="matrix(-0.99582912,0,0,-0.99239778,1021.6871,1021.4805) " id="g4587">
    <rect fill="#ffffff" stroke="#000000" stroke-width="2.011846" stroke-miterlimit="4" id="rect3365" width="1007.1639" height="927.04303" x="10.026763" y="46.91369"/>
    <rect fill="#cccccc" stroke="#000000" stroke-width="2.011846" stroke-miterlimit="4" id="rect4137" width="60.09816" height="48.992397" x="10.026763" y="325.98459"/>
    <rect fill="#cccccc" stroke="#000000" stroke-width="2.011846" stroke-miterlimit="4" id="rect4139" width="60.09816" height="45.456867" x="10.026763" y="374.97699"/>
    <rect fill="#cccccc" stroke="#000000" stroke-width="2.011846" stroke-miterlimit="4" id="rect4141" width="83.836746" height="115.66246" x="10.026763" y="420.43387"/>
    <rect fill="#cccccc" stroke="#000000" stroke-width="2.011846" stroke-miterlimit="4" id="rect4145" width="58.083767" height="56.063465" x="93.863511" y="459.32474"/>
    <rect fill="#cccccc" stroke="#000000" stroke-width="2.011846" stroke-miterlimit="4" id="rect4147" width="58.083771" height="38.890869" x="93.863511" y="420.43387"/>
    <rect fill="#cccccc" stroke="#000000" stroke-width="2.011846" stroke-miterlimit="4" id="rect4149" width="141.41544" height="112.632" x="10.026763" y="536.09631"/>
    <rect fill="#cccccc" stroke="#000000" stroke-width="2.011846" stroke-miterlimit="4" id="rect4151" width="141.41544" height="92.42897" x="10.026763" y="648.72833"/>
    <rect fill="#cccccc" stroke="#000000" stroke-width="2.011846" stroke-miterlimit="4" id="rect4153" width="141.41544" height="92.42894" x="10.026763" y="741.15729"/>
    <rect fill="#cccccc" stroke="#000000" stroke-width="2.011846" stroke-miterlimit="4" id="rect4155" width="141.41544" height="141.79906" x="10.026763" y="833.58624"/>
    <rect fill="#cccccc" stroke="#000000" stroke-width="2.011846" stroke-miterlimit="4" id="rect4157" width="95.964493" height="141.79904" x="238.820398" y="833.58624"/>
    <rect fill="#cccccc" stroke="#000000" stroke-width="2.011846" stroke-miterlimit="4" id="rect4159" width="89.903572" height="141.79904" x="334.784888" y="833.58624"/>
    <rect fill="#cccccc" stroke="#000000" stroke-width="2.011846" stroke-miterlimit="4" id="rect4161" width="91.418808" height="141.79904" x="424.688458" y="833.58624"/>
    <rect fill="#cccccc" stroke="#000000" stroke-width="2.011846" stroke-miterlimit="4" id="rect4163" width="89.398506" height="149.37518" x="516.107278" y="826.01007"/>
    <rect fill="#cccccc" stroke="#000000" stroke-width="2.011846" stroke-miterlimit="4" id="rect4165" width="64.144676" height="53.033039" x="516.107278" y="826.01007"/>
    <rect fill="#cccccc" stroke="#000000" stroke-width="2.011846" stroke-miterlimit="4" id="rect4167" width="180.31221" height="149.37521" x="605.505778" y="826.01007"/>
    <rect fill="#cccccc" stroke="#000000" stroke-width="2.011846" stroke-miterlimit="4" id="rect4169" width="66.165009" height="34.850262" x="785.817968" y="833.58624"/>
    <rect fill="#cccccc" stroke="#000000" stroke-width="2.011846" stroke-miterlimit="4" id="rect4171" width="140.45891" height="235.23814" x="876.731728" y="740.14716"/>
    <rect fill="#cccccc" stroke="#000000" stroke-width="2.011846" stroke-miterlimit="4" id="rect4173" width="140.45891" height="93.439133" x="875.303163" y="646.70801"/>
    <rect fill="#cccccc" stroke="#000000" stroke-width="2.011846" stroke-miterlimit="4" id="rect4177" width="60.656864" height="46.467018" x="956.533788" y="489.542635"/>
    <rect fill="#cccccc" stroke="#000000" stroke-width="2.011846" stroke-miterlimit="4" id="rect4179" width="60.656853" height="89.398499" x="956.533788" y="398.71558"/>
    <rect fill="#cccccc" stroke="#000000" stroke-width="2.011846" stroke-miterlimit="4" id="rect4181" width="60.656853" height="46.972095" x="956.533788" y="351.74347"/>
    <rect fill="#cccccc" stroke="#000000" stroke-width="2.011846" stroke-miterlimit="4" id="rect4183" width="60.656853" height="44.951775" x="956.533788" y="306.79169"/>
    <rect fill="#cccccc" stroke="#000000" stroke-width="2.011846" stroke-miterlimit="4" id="rect4185" width="60.656853" height="46.972088" x="956.533788" y="259.81961"/>
    <rect fill="#cccccc" stroke="#000000" stroke-width="2.011846" stroke-miterlimit="4" id="rect4191" width="55.101025" height="43.941647" x="962.089638" y="215.87796"/>
    <rect fill="#cccccc" stroke="#000000" stroke-width="2.011846" stroke-miterlimit="4" id="rect4193" width="55.101006" height="45.45686" x="962.089638" y="170.4211"/>
    <rect fill="#cccccc" stroke="#000000" stroke-width="2.011846" stroke-miterlimit="4" id="rect4195" width="55.101006" height="46.467014" x="962.089638" y="123.95408"/>
    <rect fill="#cccccc" stroke="#000000" stroke-width="2.011846" stroke-miterlimit="4" id="rect4197" width="46.467018" height="61.469692" x="922.693638" y="48.342255"/>
    <rect fill="#cccccc" stroke="#000000" stroke-width="2.011846" stroke-miterlimit="4" id="rect4199" width="47.477142" height="61.469692" x="875.216468" y="48.342255"/>
    <rect fill="#cccccc" stroke="#000000" stroke-width="2.011846" stroke-miterlimit="4" id="rect4201" width="44.446682" height="61.469692" x="830.769818" y="48.342255"/>
    <rect fill="#cccccc" stroke="#000000" stroke-width="2.011846" stroke-miterlimit="4" id="rect4203" width="44.446739" height="61.469692" x="786.323098" y="48.342255"/>
    <rect fill="#cccccc" stroke="#000000" stroke-width="2.011846" stroke-miterlimit="4" id="rect4205" width="44.446735" height="61.469692" x="741.876378" y="48.342255"/>
    <rect fill="#cccccc" stroke="#000000" stroke-width="2.011846" stroke-miterlimit="4" id="rect4207" width="45.456882" height="61.469692" x="696.419468" y="48.342255"/>
    <rect fill="#cccccc" stroke="#000000" stroke-width="2.011846" stroke-miterlimit="4" id="rect4209" width="110.6117" height="56.063465" x="822.688578" y="135.06577"/>
    <rect fill="#cccccc" stroke="#000000" stroke-width="2.011846" stroke-miterlimit="4" id="rect4220" width="110.61185" height="94.449234" x="822.688578" y="191.12923"/>
    <rect fill="#cccccc" stroke="#000000" stroke-width="2.011846" stroke-miterlimit="4" id="rect4222" width="55.55854" height="21.718307" x="877.741858" y="285.57846"/>
    <rect fill="#cccccc" stroke="#000000" stroke-width="2.011846" stroke-miterlimit="4" id="rect4224" width="55.558575" height="43.436577" x="877.741858" y="307.29675"/>
    <rect fill="#cccccc" stroke="#000000" stroke-width="2.011846" stroke-miterlimit="4" id="rect4226" width="185.36301" height="51.012703" x="637.325598" y="196.68506"/>
    <rect fill="#cccccc" stroke="#000000" stroke-width="2.011846" stroke-miterlimit="4" id="rect4228" width="71.215767" height="96.974655" x="751.472818" y="247.69775"/>
    <rect fill="#cccccc" stroke="#000000" stroke-width="2.011846" stroke-miterlimit="4" id="rect4230" width="53.53809" height="96.974648" x="697.934728" y="247.69775"/>
    <rect fill="#cccccc" stroke="#000000" stroke-width="2.011846" stroke-miterlimit="4" id="rect4234" width="60.609131" height="36.870575" x="637.325598" y="247.69775"/>
    <rect fill="#cccccc" stroke="#000000" stroke-width="2.011846" stroke-miterlimit="4" id="rect4236" width="60.609131" height="60.104073" x="637.325598" y="284.56833"/>
    <rect fill="#cccccc" stroke="#000000" stroke-width="2.011846" stroke-miterlimit="4" id="rect4238" width="26.263969" height="22.72842" x="671.670758" y="321.94397"/>
    <rect fill="#cccccc" stroke="#000000" stroke-width="2.011846" stroke-miterlimit="4" id="rect4240" width="38.890881" height="61.619293" x="783.797708" y="135.06577"/>
    <rect fill="#cccccc" stroke="#000000" stroke-width="2.011846" stroke-miterlimit="4" id="rect4242" width="41.921345" height="61.619293" x="741.876378" y="135.06577"/>
    <path fill="#cccccc" stroke="#000000" stroke-width="2.011846" stroke-miterlimit="4" d="m653.488038,135.06577l88.38834,0l0,61.61929l-104.55078,0l0,-30.80965l16.16244,-30.80964z" id="rect4246"/>
    <path fill="#cccccc" stroke="#000000" stroke-width="2.011846" stroke-miterlimit="4" d="m652.997048,48.34375l0,46.3125l10.09375,0l0,15.15625l33.34375,0l0,-61.46875l-43.4375,0z" id="rect4249"/>
    <path fill="#cccccc" stroke="#000000" stroke-width="2.011846" stroke-miterlimit="4" d="m10.028298,48.34375l0,191.28125l179.28125,0l0,-72.24889l16.6875,-15.65736l0,-103.375l-195.96875,0z" id="rect4254"/>
    <path fill="#cccccc" stroke="#000000" stroke-width="2.011846" stroke-miterlimit="4" d="m150.937128,155.77388l29.28774,0l9.58976,11.12833l-0.50508,51.50113l-38.37242,0l0,-62.62946z" id="rect4259"/>
    <path fill="#cccccc" stroke="#000000" stroke-width="2.011846" stroke-miterlimit="4" d="m296.278753,97.025136l28.065108,-12.458893l40.692011,0.168012l15.020373,32.377141l-62.191128,27.948249l-21.586365,-48.034509z" id="rect4262"/>
    <path fill="#cccccc" stroke="#000000" stroke-width="2.011846" stroke-miterlimit="4" d="m317.865114,145.059636l112.001013,-50.332455l0.025842,42.019783l-11.5538,-0.087586l-86.810152,38.803284l-13.662903,-30.403026z" id="rect4315"/>
    <path fill="#cccccc" stroke="#000000" stroke-width="2.011846" stroke-miterlimit="4" d="m337.310268,48.34226l0,36.27752l27.7256,0.11447l15.02037,32.37714l49.80989,-22.38421l0,-46.38492l-92.55586,0z" id="path4324"/>
    <path fill="#cccccc" stroke="#000000" stroke-width="2.011846" stroke-miterlimit="4" d="m429.891968,136.74696l96.8219,0l13.63706,-29.46039l0,-58.94432l-110.4848,0l0.02584,88.40471z" id="path4326"/>
    <path fill="#cccccc" stroke="#000000" stroke-width="2.011846" stroke-miterlimit="4" d="m663.090798,109.8125l-24.24999,0l-29.29443,64.64921l-82.83251,-37.71475l13.63706,-29.46039l0,-58.94432l112.64612,0.0015l0,46.3125l10.09375,0l0,15.15625z" id="path4328"/>
    <path fill="#cccccc" stroke="#000000" stroke-width="2.011846" stroke-miterlimit="4" d="m205.997048,151.71875l17.68163,17.68163l105.12499,0l-32.52492,-72.37524l28.06511,-12.4589l12.96641,0.05354l0,-36.27752l-131.31322,0.0015l0,103.37499z" id="path4330"/>
    <path fill="#cccccc" stroke="#000000" stroke-width="2.011846" stroke-miterlimit="4" d="m331.528018,175.46266l25.9853,51.52698l51.51778,61.11423l124.75384,0l52.02286,-60.10408l23.73858,-53.53808l-82.83251,-37.71475l-96.8219,-0.002l-11.5538,-0.0855l-86.81015,38.8032z" id="path4332"/>
    <path fill="#cccccc" stroke="#000000" stroke-width="2.011846" stroke-miterlimit="4" d="m421.152928,288.10387l0,48.48732c32.82996,12.62691 69.65311,10.02829 100.51018,0l0,-48.48732l-100.51018,0z" id="path4334"/>
    <rect fill="#cccccc" stroke="#000000" stroke-width="2.011846" stroke-miterlimit="4" id="rect4336" width="53.538086" height="45.456863" x="521.663128" y="288.10388"/>
    <path fill="#cccccc" stroke="#000000" stroke-width="2.011846" stroke-miterlimit="4" d="m546.940818,272.90436l15.63347,15.19952l41.41625,0l0,-17.1726l-32.0548,-26.90454l-24.99492,28.87762z" id="path4338"/>
    <path fill="#cccccc" stroke="#000000" stroke-width="2.011846" stroke-miterlimit="4" d="m603.990538,270.93128l5.47973,0l0,-56.217l-17.77173,0l-5.89074,13.28551l-13.87206,16.02695l32.0548,26.90454z" id="path4340"/>
    <path fill="#cccccc" stroke="#000000" stroke-width="2.011846" stroke-miterlimit="4" d="m609.470268,214.71428l0,-40.08092l-17.77173,40.08092l17.77173,0z" id="path4342"/>
    <path fill="#cccccc" stroke="#000000" stroke-width="2.011846" stroke-miterlimit="4" d="m409.031098,288.10387l-29.04188,0l16.80782,-14.51295l12.23406,14.51295z" id="path4344"/>
    <path fill="#cccccc" stroke="#000000" stroke-width="2.011846" stroke-miterlimit="4" d="m313.220258,169.40038l0,-17.36467l6.32779,-3.23116l9.25562,20.59583l-15.58341,0z" id="path4346"/>
    <path fill="#cccccc" stroke="#000000" stroke-width="2.011846" stroke-miterlimit="4" d="m210.363118,195.07143l0,53.21428l50.35714,0l0,-59.28571l-44.64285,0l-5.71429,6.07143z" id="path4348"/>
    <rect fill="#cccccc" stroke="#000000" stroke-width="2.011846" stroke-miterlimit="4" id="rect4350" width="45.000103" height="59.28569" x="260.720258" y="189"/>
    <rect fill="#cccccc" stroke="#000000" stroke-width="2.011846" stroke-miterlimit="4" id="rect4355" width="52.5" height="96.428596" x="282.863108" y="248.28569"/>
    <rect fill="#cccccc" stroke="#000000" stroke-width="2.011846" stroke-miterlimit="4" id="rect4357" width="72.499985" height="96.428574" x="210.363118" y="248.28571"/>
    <path fill="#cccccc" stroke="#000000" stroke-width="2.011846" stroke-miterlimit="4" d="m305.720358,189l0,59.28569l29.64275,0l-29.64275,-59.28569z" id="path4359"/>
    <path fill="#cccccc" stroke="#000000" stroke-width="2.011846" stroke-miterlimit="4" d="m91.434548,330.4375l0,66.78125l-21.3125,0l0,23.21875l119.53125,0l0,-90l-98.21875,0z" id="rect4361"/>
    <path fill="#cccccc" stroke="#000000" stroke-width="2.011846" stroke-miterlimit="4" d="m189.309548,239.625l0,73.30357l-16.80357,0l0,17.50893l-81.07143,0l0,66.78125l-21.30963,0l0,-71.23416l-60.09816,0l0.00154,-86.35959l179.28125,0z" id="path4366"/>
    <path fill="#cccccc" stroke="#000000" stroke-width="2.011846" stroke-miterlimit="4" d="m238.820398,833.58624l-59.88585,0l0,30.7709l-27.49235,0l0,111.02814l87.3782,0l0,-141.79904z" id="path4368"/>
    <path fill="#cccccc" stroke="#000000" stroke-width="2.011846" stroke-miterlimit="4" d="m249.434548,468.40625l0,59.09375l19.1875,0l0,59.09375l-19.1875,0l0,57.59375l179.8125,0l0,-175.78125l-179.8125,0z" id="rect4370"/>
    <rect fill="#cccccc" stroke="#000000" stroke-width="2.011846" stroke-miterlimit="4" id="rect4372" width="57.578693" height="59.093925" x="211.041208" y="527.51001"/>
    <path fill="#cccccc" stroke="#000000" stroke-width="2.011846" stroke-miterlimit="4" d="m268.622048,527.5l36.02679,-59.09375" id="path4377"/>
    <path fill="#cccccc" stroke="#000000" stroke-width="2.011846" stroke-miterlimit="4" d="m268.619898,586.59375l34.60036,57.59375" id="path4379"/>
    <path fill="#cccccc" stroke="#000000" stroke-width="2.011846" stroke-miterlimit="4" d="m243.372048,413.375l0,55.03125l185.875,0l0,307.09375l48.46875,0l0,-307.09375l0,-55.03125l-234.34375,0z" id="rect4381"/>
    <rect fill="#cccccc" stroke="#000000" stroke-width="2.011846" stroke-miterlimit="4" id="rect4386" width="97.492615" height="131.3125" x="331.754438" y="644.1875"/>
    <rect fill="#cccccc" stroke="#000000" stroke-width="2.011846" stroke-miterlimit="4" id="rect4388" width="52.022858" height="131.3125" x="279.731578" y="644.1875"/>
    <rect fill="#cccccc" stroke="#000000" stroke-width="2.011846" stroke-miterlimit="4" id="rect4390" width="69.19545" height="29.794643" x="210.536128" y="644.1875"/>
    <rect fill="#cccccc" stroke="#000000" stroke-width="2.011846" stroke-miterlimit="4" id="rect4392" width="69.19545" height="101.51785" x="210.536128" y="673.98212"/>
    <rect fill="#cccccc" stroke="#000000" stroke-width="2.011846" stroke-miterlimit="4" id="rect4396" width="57.142857" height="26.428572" x="877.148838" y="372.21429"/>
    <rect fill="#cccccc" stroke="#000000" stroke-width="2.011846" stroke-miterlimit="4" id="rect4402" width="57.14291" height="45.71431" x="877.148838" y="398.64285"/>
    <rect fill="#cccccc" stroke="#000000" stroke-width="2.011846" stroke-miterlimit="4" id="rect4404" width="57.142891" height="44.285732" x="877.148838" y="444.35718"/>
    <rect fill="#cccccc" stroke="#000000" stroke-width="2.011846" stroke-miterlimit="4" id="rect4406" width="57.142838" height="45.950836" x="877.148838" y="488.64291"/>
    <path fill="#cccccc" stroke="#000000" stroke-width="2.011846" stroke-miterlimit="4" d="m834.2783,534.59375l0,52.96875l26.8125,0l0,59.15625l156.09375,0l0,-112.125l-156.09375,0l-26.8125,0z" id="rect4408"/>
    <path fill="#cccccc" stroke="#000000" stroke-width="2.011846" stroke-miterlimit="4" d="m822.684548,285.59375l0,40.1875l17.6875,0l0,18.90625l37.375,0l0,-59.09375l-55.0625,0z" id="rect4415"/>
    <rect fill="#cccccc" stroke="#000000" stroke-width="2.011846" stroke-miterlimit="4" id="rect4420" width="157.50002" height="92.142845" x="719.648838" y="372.21429"/>
    <rect fill="#cccccc" stroke="#000000" stroke-width="2.011846" stroke-miterlimit="4" id="rect4422" width="89.285721" height="52.14286" x="787.863138" y="464.35715"/>
    <rect fill="#cccccc" stroke="#000000" stroke-width="2.011846" stroke-miterlimit="4" id="rect4424" width="42.870544" height="18.093742" x="834.278298" y="516.5"/>
    <rect fill="#cccccc" stroke="#000000" stroke-width="2.011846" stroke-miterlimit="4" id="rect4426" width="46.415161" height="42.857136" x="787.863138" y="516.5"/>
    <rect fill="#cccccc" stroke="#000000" stroke-width="2.011846" stroke-miterlimit="4" id="rect4428" width="53.558033" height="43.928577" x="780.720258" y="559.35712"/>
    <rect fill="#cccccc" stroke="#000000" stroke-width="2.011846" stroke-miterlimit="4" id="rect4430" width="111.61768" height="92.142845" x="608.031168" y="372.21429"/>
    <rect fill="#cccccc" stroke="#000000" stroke-width="2.011846" stroke-miterlimit="4" id="rect4432" width="49.49749" height="46.199253" x="558.533668" y="372.21429"/>
    <rect fill="#cccccc" stroke="#000000" stroke-width="2.011846" stroke-miterlimit="4" id="rect4436" width="49.497498" height="45.943592" x="558.533668" y="418.41354"/>
    <rect fill="#cccccc" stroke="#000000" stroke-width="2.011846" stroke-miterlimit="4" id="rect4438" width="38.890888" height="52.04121" x="569.140298" y="464.35715"/>
    <rect fill="#cccccc" stroke="#000000" stroke-width="2.011846" stroke-miterlimit="4" id="rect4440" width="38.890865" height="86.873123" x="569.140298" y="516.39838"/>
    <rect fill="#cccccc" stroke="#000000" stroke-width="2.011846" stroke-miterlimit="4" id="rect4442" width="85.35788" height="138.91437" x="608.031168" y="464.35715"/>
    <path fill="#cccccc" stroke="#000000" stroke-width="2.011846" stroke-miterlimit="4" d="m693.389048,603.27151l87.33121,0l0,-43.91439l7.14288,0l0,-94.99997l-94.47409,0l0,138.91436z" id="path4448"/>
    <rect fill="#cccccc" stroke="#000000" stroke-width="2.011846" stroke-miterlimit="4" id="rect4450" width="93.43911" height="136.87567" x="731.774818" y="644.18262"/>
    <rect fill="#cccccc" stroke="#000000" stroke-width="2.011846" stroke-miterlimit="4" id="rect4452" width="54.043182" height="96.469597" x="731.774818" y="644.18262"/>
    <rect fill="#cccccc" stroke="#000000" stroke-width="2.011846" stroke-miterlimit="4" id="rect4454" width="34.850243" height="38.385822" x="696.924598" y="644.18262"/>
    <rect fill="#cccccc" stroke="#000000" stroke-width="2.011846" stroke-miterlimit="4" id="rect4458" width="60.609104" height="28.881376" x="636.315408" y="653.68719"/>
    <rect fill="#cccccc" stroke="#000000" stroke-width="2.011846" stroke-miterlimit="4" id="rect4462" width="68.690369" height="38.385822" x="567.625038" y="644.18262"/>
    <rect fill="#cccccc" stroke="#000000" stroke-width="2.011846" stroke-miterlimit="4" id="rect4464" width="54.548225" height="108.08635" x="513.076818" y="644.18262"/>
    <path fill="#cccccc" stroke="#000000" stroke-width="2.011846" stroke-miterlimit="4" d="m567.622048,696.21875l0,56.0625l13.625,0l20.21875,0l0,28.78125l130.3125,0l0,-84.84375l-164.15625,0z" id="rect4466"/>
    <rect fill="#cccccc" stroke="#000000" stroke-width="2.011846" stroke-miterlimit="4" id="rect4468" width="54.548237" height="52.527916" x="601.465188" y="728.5304"/>
    <rect fill="#cccccc" stroke="#000000" stroke-width="2.011846" stroke-miterlimit="4" id="rect4473" width="68.170227" height="28.793533" x="513.076818" y="752.26898"/>
    <rect fill="#cccccc" stroke="#000000" stroke-width="2" stroke-miterlimit="4" transform="matrix(-1.0041883,0,0,-1.0076605,1025.9663,1029.3055) " y="53.510307" x="148.612115" height="106.13573" width="90.534554" id="rect4696"/>
    <path fill="#cccccc" stroke="#000000" stroke-width="2" stroke-miterlimit="4" id="rect4698" d="m1017.202061,123.95403l0,-75.606027l-48.044134,0l0,61.46729l-7.060699,0l0,14.138736l7.060699,0l48.044134,0z"/>
    <path fill="#cccccc" stroke="#000000" stroke-width="2" stroke-miterlimit="4" id="path4703" d="m562.574325,288.10384l-15.633465,-15.199521l-13.155881,15.199511l28.789346,0.00001z"/>
   </g>
  </g>
 </g>
</svg>