<svg width="1024" height="1024" xmlns="http://www.w3.org/2000/svg">

 <metadata id="metadata7">image/svg+xml</metadata>
 <g>
  <title>background</title>
  <rect fill="none" id="canvas_background" height="1464.850293" width="1464.850293" y="-1" x="-1"/>
 </g>
 <g>
  <title>Layer 1</title>
  <g display="inline" id="layer2">
   <path fill="#ffffff" stroke="#000000" stroke-width="2" stroke-miterlimit="4" id="path3765" d="m33.571429,450.42857l360.000001,-30l-47.14286,-325l58.57143,0l0,-87.142857l26.42857,0l0,87.142857l430.71429,0l0,555.82514l121.74572,0l0,351.53309l-516.18795,0l-63.63961,-486.89353l-366.685376,31.31473l-3.804215,-96.77943z"/>
   <path fill="#cccccc" stroke="#000000" stroke-width="2" stroke-miterlimit="4" id="path3767" d="m362.56209,206.65206l185.95074,0l0,-111.22349l-202.08426,0l16.13352,111.22349z"/>
   <rect fill="#cccccc" stroke="#000000" stroke-width="2" stroke-miterlimit="4" y="95.428574" x="548.51282" height="111.22349" width="73.236061" id="rect3769"/>
   <rect fill="#cccccc" stroke="#000000" stroke-width="2" stroke-miterlimit="4" y="95.428574" x="621.7489" height="65.901154" width="39.901039" id="rect3771"/>
   <rect fill="#cccccc" stroke="#000000" stroke-width="2" stroke-miterlimit="4" y="95.428574" x="661.64996" height="65.901154" width="36.870544" id="rect3773"/>
   <rect fill="#cccccc" stroke="#000000" stroke-width="2" stroke-miterlimit="4" y="95.428574" x="698.52051" height="65.901154" width="39.395927" id="rect3775"/>
   <rect fill="#cccccc" stroke="#000000" stroke-width="2" stroke-miterlimit="4" y="95.428574" x="737.91644" height="140.65244" width="124.22643" id="rect3777"/>
   <path fill="#cccccc" stroke="#000000" stroke-width="2" stroke-miterlimit="4" id="rect3798" d="m728.3125,236.09375l0,13.625l-25.25,0l0,265.65625l159.09375,0l0,-279.28125l-133.84375,0z"/>
   <path fill="#cccccc" stroke="#000000" stroke-width="2" stroke-miterlimit="4" d="m677.8125,236.09375l0,13.625l25.25,0l0,265.65625l-159.09375,0l0,-279.28125l133.84375,0z" id="path3803"/>
   <rect fill="#cccccc" stroke="#000000" stroke-width="2" stroke-miterlimit="4" y="515.375" x="613.1626" height="23.751778" width="126.26907" id="rect3805"/>
   <rect fill="#cccccc" stroke="#000000" stroke-width="2" stroke-miterlimit="4" y="539.12677" x="613.1626" height="41.416256" width="42.426403" id="rect3807"/>
   <rect fill="#cccccc" stroke="#000000" stroke-width="2" stroke-miterlimit="4" y="539.12677" x="655.58899" height="41.416248" width="40.406105" id="rect3809"/>
   <rect fill="#cccccc" stroke="#000000" stroke-width="2" stroke-miterlimit="4" y="539.12677" x="695.99512" height="41.416241" width="43.436577" id="rect3811"/>
   <rect fill="#cccccc" stroke="#000000" stroke-width="2" stroke-miterlimit="4" y="515.375" x="739.4317" height="51.530972" width="48.487293" id="rect3813"/>
   <rect fill="#cccccc" stroke="#000000" stroke-width="2" stroke-miterlimit="4" y="515.375" x="787.91901" height="65.410713" width="34.223862" id="rect3817"/>
   <rect fill="#cccccc" stroke="#000000" stroke-width="2" stroke-miterlimit="4" y="619.71429" x="763.92859" height="41.42857" width="98.214287" id="rect3819"/>
   <rect fill="#cccccc" stroke="#000000" stroke-width="2" stroke-miterlimit="4" y="661.14288" x="739.4317" height="33.214298" width="58.425858" id="rect3821"/>
   <rect fill="#cccccc" stroke="#000000" stroke-width="2" stroke-miterlimit="4" y="621.1424" x="696.78571" height="36.071888" width="42.645924" id="rect3829"/>
   <rect fill="#cccccc" stroke="#000000" stroke-width="2" stroke-miterlimit="4" y="621.1424" x="655.71429" height="36.071884" width="41.071419" id="rect3831"/>
   <rect fill="#cccccc" stroke="#000000" stroke-width="2" stroke-miterlimit="4" y="621.1424" x="613.1626" height="36.07188" width="42.551697" id="rect3833"/>
   <rect fill="#cccccc" stroke="#000000" stroke-width="2" stroke-miterlimit="4" y="657.21429" x="613.1626" height="68.214325" width="126.2691" id="rect3835"/>
   <path fill="#cccccc" stroke="#000000" stroke-width="2" stroke-miterlimit="4" id="path3845" d="m702.84375,800.4375l0,-37.875l-26.0625,0l0,37.875l26.0625,0z"/>
   <path fill="#cccccc" stroke="#000000" stroke-width="2" stroke-miterlimit="4" id="rect3837" d="m676.78125,725.4375l0,37.125l26.0625,0l0,37.875l0,22.84375l36.59375,0l0,-97.84375l-62.65625,0z"/>
   <path fill="#cccccc" stroke="#000000" stroke-width="2" stroke-miterlimit="4" id="rect3849" d="m613.15625,725.4375l0,75l0,22.5l35.40625,0l0,-22.5l28.21875,0l0,-75l-63.625,0z"/>
   <rect fill="#cccccc" stroke="#000000" stroke-width="2" stroke-miterlimit="4" y="694.35718" x="739.4375" height="93.26712" width="58.420059" id="rect3854"/>
   <path fill="#cccccc" stroke="#000000" stroke-width="2" stroke-miterlimit="4" id="rect3860" d="m862.15625,651.25l0,9.90625l-64.3125,0l0,126.46875l64.3125,0l0,-17.9375l121.71875,0l0,-118.4375l-121.71875,0z"/>
   <rect fill="#cccccc" stroke="#000000" stroke-width="2" stroke-miterlimit="4" y="787.62433" x="769.73627" height="36.87056" width="92.406624" id="rect3862"/>
   <rect fill="#cccccc" stroke="#000000" stroke-width="2" stroke-miterlimit="4" y="769.6875" x="906.61194" height="123.49774" width="77.276672" id="rect3867"/>
   <rect fill="#cccccc" stroke="#000000" stroke-width="2" stroke-miterlimit="4" y="893.18524" x="887.92407" height="109.60155" width="95.964493" id="rect3869"/>
   <rect fill="#cccccc" stroke="#000000" stroke-width="2" stroke-miterlimit="4" y="919.44922" x="733.87585" height="83.337578" width="154.04825" id="rect3871"/>
   <rect fill="#cccccc" stroke="#000000" stroke-width="2" stroke-miterlimit="4" y="855.80963" x="733.87585" height="63.639618" width="131.82487" id="rect3873"/>
   <rect fill="#cccccc" stroke="#000000" stroke-width="2" stroke-miterlimit="4" y="855.80963" x="620.73877" height="146.97717" width="113.13712" id="rect3875"/>
   <path fill="#cccccc" stroke="#000000" stroke-width="2" stroke-miterlimit="4" id="rect3877" d="m456.87766,919.98254l163.86109,0l0,82.80426l-153.03812,0l-10.82297,-82.80426z"/>
   <path fill="#cccccc" stroke="#000000" stroke-width="2" stroke-miterlimit="4" id="rect3880" d="m436.97577,767.71722l133.25534,0l0,152.26534l-113.40012,-0.35714l-19.85522,-151.9082z"/>
   <path fill="#cccccc" stroke="#000000" stroke-width="2" stroke-miterlimit="4" id="rect3882" d="m426.42941,687.02917l143.80171,0l0,80.68808l-133.25535,-0.00002l-10.54636,-80.68806z"/>
   <path fill="#cccccc" stroke="#000000" stroke-width="2" stroke-miterlimit="4" id="rect3884" d="m417.84375,621.3125l8.58566,65.71671l143.78934,0.002l0,-48.90625l-62.625,0l0,-16.8125l-89.75,0.00004z"/>
   <path fill="#cccccc" stroke="#000000" stroke-width="2" stroke-miterlimit="4" id="path3889" d="m507.59375,621.3125l0,-336.74416"/>
   <path fill="#cccccc" stroke="#000000" stroke-width="2" stroke-miterlimit="4" id="path3893" d="m460.62956,621.31248l0,-107.43952"/>
   <path fill="#ffffff" stroke="#000000" stroke-width="2" stroke-miterlimit="4" id="path3895" d="m379.88115,326.0486l34.28139,-5.11477l15.15229,101.01525"/>
  </g>
 </g>
</svg>