<svg width="1024" height="1024" xmlns="http://www.w3.org/2000/svg">

 <metadata id="metadata7">image/svg+xml</metadata>
 <g>
  <title>background</title>
  <rect fill="none" id="canvas_background" height="1464.850293" width="1464.850293" y="-1" x="-1"/>
 </g>
 <g>
  <title>Layer 1</title>
  <g display="inline" id="g4801">
   <path fill="#ffffff" stroke="#000000" stroke-width="2" stroke-miterlimit="4" id="path4803" d="m208.0918,17.888672l0,101.826168l-19.51953,0l0,51.42774l17.14257,0l0,161.42969l-18.57226,0l0,48.57031l12.85742,0l0,75.71484l-45.71484,0l0,55.71485l-51.42774,0l0,55.71289l-48.572264,0l0,61.42968l-22.857422,0l0,227.14258l28.572266,0l0,67.14258l-30,0l0,41.42773l325.71484,0l0,-41.42773l0,-67.14258l0,-51.05078l37.23438,0l0,20.20313l437.39648,0l21.43946,0l0,-259.86719l83.92968,0l12.5,0l27.5,0l0,-40.71485l-27.5,0l0,-174.64257l-12.5,0l0,-5.35743l-72.14257,0l0,-253.570308l-16.42969,0l0,30.714848l-16.79688,0l0,-104.683598l-474.63086,0l-147.62304,0z"/>
   <rect fill="#cccccc" stroke="#000000" stroke-width="2" stroke-miterlimit="4" y="924" x="30" height="41.427731" width="68.571426" id="rect4805"/>
   <path fill="#cccccc" stroke="#000000" stroke-width="2" stroke-miterlimit="4" d="m764.64258,724.35742l0,28.41602l28.32617,0l0,73.23633l58.81641,0l0,-92.9336l-58.81446,0l0,-8.71875l-28.32812,0z" id="path4807"/>
   <path fill="#cccccc" stroke="#000000" stroke-width="2" stroke-miterlimit="4" id="path4809" d="m792.85742,623.28516l0,54.23242l33.44727,0l0,55.55859l25.48047,0l0,-55.55859l0,-54.23242l-58.92774,0z"/>
   <rect fill="#cccccc" stroke="#000000" stroke-width="2" stroke-miterlimit="4" y="677.51758" x="792.85742" height="27.779291" width="33.447269" id="rect4811"/>
   <rect fill="#cccccc" stroke="#000000" stroke-width="2" stroke-miterlimit="4" y="752.77405" x="752.85742" height="73.23571" width="40.112305" id="rect4813"/>
   <path fill="#cccccc" stroke="#000000" stroke-width="2" stroke-miterlimit="4" id="path4815" d="m661.14453,264.87109l0,17.17188l-18.6875,0l0,52.78125l65.1543,0l0,-69.95313l-46.4668,0z"/>
   <path fill="#cccccc" stroke="#000000" stroke-width="2" stroke-miterlimit="4" id="path4817" d="m642.45703,194.16016l0,50.00195l18.6875,0l0,20.70898l46.4668,0l0,-70.71093l-65.1543,0z"/>
   <rect fill="#cccccc" stroke="#000000" stroke-width="2" stroke-miterlimit="4" y="244.16211" x="642.45703" height="37.880859" width="18.6875" id="rect4819"/>
   <rect fill="#cccccc" stroke="#000000" stroke-width="2" stroke-miterlimit="4" y="167.39064" x="642.45703" height="26.76952" width="48.487312" id="rect4821"/>
   <rect fill="#cccccc" stroke="#000000" stroke-width="2" stroke-miterlimit="4" y="176.5" x="543.46204" height="151.42857" width="47.25222" id="rect4823"/>
   <rect fill="#cccccc" stroke="#000000" stroke-width="2" stroke-miterlimit="4" y="364.71429" x="242.94141" height="105.71429" width="52.772881" id="rect4825"/>
   <path fill="#cccccc" stroke="#000000" stroke-width="2" stroke-miterlimit="4" id="path4827" d="m200,386.85742l0,70l-45.71484,0l0,55.71485l45.71484,0l42.94141,0l0,-125.71485l-42.94141,0z"/>
   <rect fill="#cccccc" stroke="#000000" stroke-width="2" stroke-miterlimit="4" y="512.57227" x="204.64287" height="32.142056" width="38.298561" id="rect4829"/>
   <rect fill="#cccccc" stroke="#000000" stroke-width="2" stroke-miterlimit="4" y="821.14288" x="31.427734" height="35.71463" width="52.857143" id="rect4831"/>
   <path fill="#cccccc" stroke="#000000" stroke-width="2" stroke-miterlimit="4" id="path4833" d="m187.14258,332.57227l0,48.57031l12.85742,0l0,5.71484l5.71484,0l0,-5.71484l0,-48.57031l-18.57226,0z"/>
   <path fill="#cccccc" stroke="#000000" stroke-width="2" stroke-miterlimit="4" id="path4835" d="m242.94141,364.71429l-37.22657,0"/>
   <path fill="#cccccc" stroke="#000000" stroke-width="2" stroke-miterlimit="4" id="path4837" d="m792.85714,463.87042l0,102.27216"/>
   <path fill="#ffffff" stroke="#000000" stroke-width="2" stroke-miterlimit="4" d="m543.46204,327.92857l0,6.78572l-302.03347,0l0,-22.85714l-35.71373,0" id="path4839"/>
   <path fill="#ffffff" stroke="#000000" stroke-width="2" stroke-miterlimit="4" d="m543.46204,176.5l0,-14.53892l98.99499,0l0,5.42956" id="path4841"/>
   <path fill="#cccccc" stroke="#000000" stroke-width="2" stroke-miterlimit="4" d="m717.9668,360.83398l0,34.22071l9.34375,0l0,68.8164l65.54687,0l0,-103.03711l-65.54687,0l-9.34375,0z" id="path4843"/>
   <path fill="#cccccc" stroke="#000000" stroke-width="2" stroke-miterlimit="4" d="m682.10547,360.83398l0,34.22071l0,1.13476l0,54.80078l45.20508,0l0,-55.93554l-9.34375,0l0,-34.22071l-35.86133,0z" id="path4845"/>
   <rect fill="#cccccc" stroke="#000000" stroke-width="2" stroke-miterlimit="4" id="rect4847" width="36.11298" height="48.235657" x="645.99255" y="360.83398"/>
   <rect fill="#cccccc" stroke="#000000" stroke-width="2" stroke-miterlimit="4" id="rect4849" width="36.113007" height="49.244961" x="645.99255" y="409.06964"/>
   <rect fill="#cccccc" stroke="#000000" stroke-width="2" stroke-miterlimit="4" id="rect4851" width="49.24493" height="48.739838" x="645.99255" y="458.31461"/>
   <path fill="#cccccc" stroke="#000000" stroke-width="2" stroke-miterlimit="4" d="m695.23828,450.99023l0,12.88086l0,33.08203l0,10.10157l-49.24609,0l0,83.73047l0,16.62695c0,32.73483 26.35306,59.08789 59.08789,59.08789l14.20508,0l14.48437,0l59.08789,0l0,-59.08789l0,-16.62695l0,-24.64258l0,-59.08789l0,-43.1836l-65.54687,0l0,-12.88086l-32.07227,0z" id="path4853"/>
   <rect fill="#cccccc" stroke="#000000" stroke-width="2" stroke-miterlimit="4" id="rect4855" width="21.071711" height="51.071426" x="771.78571" y="615.42859"/>
   <rect fill="#cccccc" stroke="#000000" stroke-width="2" stroke-miterlimit="4" id="rect4857" width="33.333988" height="27.779301" x="792.9707" y="705.29688"/>
   <path fill="#ffffff" stroke="#000000" stroke-width="2" stroke-miterlimit="4" d="m707.61133,334.82422l67.68074,0l0,26.00976" id="path4859"/>
   <path fill="#cccccc" stroke="#000000" stroke-width="2" stroke-miterlimit="4" d="m762.16016,164.86523l0,169.95899l65.66015,0l0,-20.45703l24.74805,0l0,-131.31836l-24.74805,0l0,-18.1836l-65.66015,0z" id="path4861"/>
  </g>
 </g>
</svg>